<svg width="300" height="316" viewBox="0 0 300 316" fill="none" xmlns="http://www.w3.org/2000/svg">
<path d="M178.236 181.181C178.291 181.231 178.343 181.283 178.392 181.338L178.837 181.798L180.555 183.617L187.034 190.557L209.993 215.312H209.728L235.77 185.483L235.95 185.28L236.098 185.506L237.995 188.363L257.699 218.028L257.425 217.981L276.364 202.852L276.473 202.766L276.567 202.868L291.025 219.262L294.928 223.735L295.943 224.906C296.169 225.171 296.278 225.312 296.278 225.312C296.278 225.312 296.146 225.187 295.912 224.937L294.881 223.735L290.9 219.316L276.348 203.04H276.551L257.66 218.27L257.503 218.395L257.386 218.223L237.659 188.605L235.755 185.74H236.075C226.597 196.592 217.682 206.779 210.001 215.569L209.868 215.717L209.735 215.569C200.305 205.311 192.413 196.74 186.878 190.713L180.477 183.687L178.798 181.829C178.619 181.619 178.478 181.462 178.369 181.345C178.26 181.228 178.228 181.189 178.236 181.181Z" fill="#E6E6E6"/>
<path d="M207.3 215.515C207.295 216.057 207.452 216.588 207.751 217.041C208.049 217.494 208.476 217.848 208.976 218.058C209.476 218.267 210.027 218.323 210.559 218.219C211.092 218.114 211.581 217.853 211.964 217.47C212.348 217.086 212.608 216.597 212.713 216.065C212.818 215.533 212.762 214.982 212.552 214.481C212.342 213.981 211.988 213.555 211.535 213.256C211.083 212.958 210.551 212.801 210.009 212.806C209.292 212.81 208.605 213.096 208.098 213.604C207.591 214.111 207.304 214.797 207.3 215.515Z" fill="#E0E0E0"/>
<path d="M255.13 218.77C255.134 219.311 255.297 219.838 255.6 220.286C255.903 220.734 256.332 221.081 256.833 221.285C257.334 221.489 257.884 221.539 258.414 221.43C258.944 221.321 259.429 221.057 259.808 220.672C260.188 220.287 260.445 219.798 260.546 219.267C260.648 218.736 260.59 218.187 260.379 217.689C260.168 217.191 259.814 216.767 259.362 216.47C258.91 216.173 258.38 216.017 257.839 216.022C257.116 216.028 256.425 216.321 255.917 216.836C255.409 217.351 255.126 218.047 255.13 218.77Z" fill="#E0E0E0"/>
<path d="M273.733 203.727C273.738 204.265 273.902 204.791 274.206 205.236C274.509 205.682 274.937 206.027 275.437 206.229C275.937 206.431 276.485 206.48 277.012 206.371C277.54 206.261 278.023 205.997 278.401 205.613C278.779 205.229 279.034 204.741 279.134 204.212C279.235 203.682 279.176 203.135 278.966 202.639C278.755 202.143 278.403 201.72 277.952 201.425C277.501 201.129 276.973 200.974 276.434 200.979C275.713 200.987 275.023 201.281 274.517 201.796C274.011 202.31 273.729 203.005 273.733 203.727Z" fill="#E0E0E0"/>
<path d="M233.194 185.85C233.197 186.39 233.361 186.918 233.664 187.366C233.967 187.814 234.396 188.161 234.897 188.365C235.398 188.569 235.948 188.619 236.478 188.51C237.007 188.401 237.493 188.137 237.872 187.752C238.252 187.367 238.509 186.878 238.61 186.347C238.712 185.816 238.653 185.267 238.442 184.769C238.232 184.271 237.878 183.847 237.426 183.55C236.974 183.253 236.444 183.097 235.903 183.102C235.18 183.108 234.488 183.401 233.981 183.916C233.473 184.431 233.19 185.126 233.194 185.85Z" fill="#E0E0E0"/>
<path d="M294.124 225.39C294.127 225.93 294.291 226.458 294.594 226.906C294.897 227.354 295.326 227.701 295.827 227.905C296.328 228.109 296.878 228.159 297.407 228.05C297.937 227.941 298.422 227.677 298.802 227.292C299.182 226.907 299.438 226.418 299.54 225.887C299.641 225.356 299.583 224.807 299.372 224.309C299.161 223.811 298.808 223.387 298.355 223.09C297.903 222.793 297.374 222.637 296.833 222.642C296.11 222.648 295.418 222.941 294.91 223.456C294.403 223.971 294.12 224.666 294.124 225.39Z" fill="#E0E0E0"/>
<path d="M54.823 18.6576H37.2817V88.4244H54.823V18.6576Z" fill="#E6E6E6"/>
<path d="M80.6236 33.8725H63.0824V88.4166H80.6236V33.8725Z" fill="#E6E6E6"/>
<path d="M106.822 46.3317H89.281V88.4166H106.822V46.3317Z" fill="#E6E6E6"/>
<path d="M131.077 63.4279H113.536V88.4244H131.077V63.4279Z" fill="#E6E6E6"/>
<path d="M117.033 1.24903C117.033 1.24903 116.869 1.45981 116.549 1.83452L115.089 3.51292L109.539 9.8362L89.523 32.4751L89.4137 32.5922L89.2888 32.4985L76.2285 22.4906H76.4939L58.2267 45.6447L58.0081 45.9257L57.8754 46.0975L57.7115 45.9491L33.1131 24.2236H33.3863C23.7297 36.9014 15.5485 47.729 9.69357 55.3872L2.87848 64.2945L1.05956 66.6364L0.583365 67.2375C0.530215 67.3085 0.472864 67.3763 0.411621 67.4405C0.455966 67.3643 0.505527 67.2913 0.559947 67.2219L1.01272 66.5974L2.7848 64.2008L9.50622 55.2311L33.0819 23.9582L33.2068 23.7942L33.3551 23.927L57.9847 45.5978H57.688L57.9066 45.3168L76.1973 22.1783L76.3144 22.03L76.4627 22.1471L89.4996 32.1472H89.2654L109.383 9.68788C111.811 6.99463 113.715 4.87906 115.019 3.44266L116.51 1.80329C116.854 1.41297 117.033 1.24903 117.033 1.24903Z" fill="#E6E6E6"/>
<path d="M114.137 17.432C114.131 17.3135 114.144 17.1948 114.176 17.0807L114.371 16.0814C114.574 15.1524 114.847 13.919 115.152 12.4124C115.847 9.28975 116.83 5.0274 117.962 0.249808L118.212 0.484003L117.33 0.75723C112.435 2.26389 108.001 3.5988 104.785 4.5512L100.967 5.65192L99.9212 5.93295C99.8013 5.97768 99.6745 6.00145 99.5465 6.00321C99.6585 5.94238 99.7761 5.8927 99.8978 5.85489L100.92 5.50359L104.699 4.27797C107.892 3.25532 112.318 1.87356 117.189 0.374712L118.071 0.109291L118.415 0L118.329 0.351291C117.244 5.1523 116.252 9.39904 115.472 12.4826C115.089 13.9737 114.777 15.1993 114.551 16.1205C114.441 16.503 114.348 16.8309 114.277 17.0963C114.247 17.2145 114.2 17.3276 114.137 17.432Z" fill="#E6E6E6"/>
<path d="M252.515 119.213C256.001 119.157 259.425 120.135 262.355 122.024C265.285 123.914 267.588 126.629 268.975 129.828C270.361 133.026 270.768 136.564 270.144 139.994C269.52 143.424 267.893 146.591 265.468 149.096C263.044 151.602 259.931 153.332 256.524 154.068C253.116 154.804 249.567 154.513 246.325 153.232C243.083 151.951 240.293 149.738 238.309 146.871C236.324 144.005 235.235 140.615 235.177 137.129C235.106 132.456 236.891 127.945 240.142 124.586C243.392 121.228 247.842 119.295 252.515 119.213ZM252.937 145.271C254.603 145.24 256.223 144.716 257.592 143.765C258.96 142.813 260.016 141.478 260.626 139.927C261.236 138.376 261.372 136.678 261.018 135.05C260.664 133.421 259.835 131.934 258.635 130.776C257.436 129.619 255.921 128.842 254.281 128.546C252.641 128.249 250.95 128.445 249.421 129.109C247.892 129.773 246.594 130.875 245.692 132.276C244.789 133.677 244.322 135.314 244.35 136.981C244.369 138.089 244.606 139.183 245.048 140.199C245.49 141.216 246.128 142.135 246.926 142.905C247.723 143.675 248.665 144.28 249.696 144.686C250.727 145.092 251.829 145.291 252.937 145.271Z" fill="#E0E0E0"/>
<path d="M252.484 117.02C257.741 116.945 262.813 118.957 266.588 122.615C270.363 126.273 272.534 131.28 272.625 136.536L260.603 136.848C260.525 131.626 256.988 129.502 252.796 129.237C251.766 129.175 250.734 129.328 249.766 129.684C248.797 130.041 247.913 130.594 247.169 131.309C246.425 132.024 245.836 132.885 245.441 133.838C245.046 134.792 244.852 135.816 244.873 136.848L232.975 137.168C232.894 131.91 234.903 126.835 238.561 123.057C242.218 119.28 247.226 117.108 252.484 117.02Z" fill="#F0F0F0"/>
<path d="M109.781 196.888C115.849 190.52 124.175 186.789 132.967 186.497C141.759 186.205 150.314 189.376 156.792 195.327C159.974 198.26 162.542 201.795 164.348 205.728C166.154 209.66 167.161 213.912 167.311 218.237C167.461 222.562 166.752 226.874 165.223 230.922C163.695 234.971 161.378 238.676 158.408 241.822C152.339 248.19 144.013 251.922 135.221 252.214C126.43 252.506 117.875 249.335 111.397 243.384C108.215 240.451 105.646 236.916 103.841 232.983C102.035 229.05 101.028 224.798 100.877 220.473C100.727 216.149 101.437 211.837 102.965 207.788C104.493 203.74 106.81 200.035 109.781 196.888ZM145.691 230.097C147.115 228.593 148.226 226.821 148.958 224.884C149.691 222.947 150.031 220.883 149.958 218.813C149.886 216.743 149.402 214.709 148.535 212.827C147.669 210.946 146.436 209.257 144.91 207.856C141.81 205.014 137.717 203.503 133.513 203.649C129.309 203.795 125.331 205.586 122.435 208.637C121.011 210.141 119.9 211.913 119.168 213.85C118.435 215.787 118.095 217.851 118.168 219.921C118.24 221.991 118.724 224.025 119.591 225.907C120.457 227.788 121.69 229.478 123.216 230.878C126.316 233.727 130.413 235.242 134.621 235.096C138.829 234.95 142.811 233.154 145.706 230.097H145.691Z" fill="#F5F5F5"/>
<path d="M109.781 196.888C115.849 190.52 124.175 186.789 132.967 186.497C141.759 186.205 150.314 189.376 156.792 195.327L144.941 207.88C141.841 205.037 137.748 203.527 133.544 203.673C129.34 203.819 125.362 205.61 122.466 208.66C121.042 210.164 119.931 211.936 119.199 213.873C118.466 215.811 118.126 217.874 118.199 219.944C118.271 222.014 118.755 224.049 119.622 225.93C120.489 227.811 121.721 229.501 123.247 230.901L111.381 243.407C108.197 240.473 105.627 236.936 103.82 233C102.014 229.065 101.007 224.81 100.858 220.482C100.709 216.155 101.421 211.84 102.953 207.79C104.485 203.74 106.805 200.034 109.781 196.888Z" fill="#E0E0E0"/>
<path d="M155.433 189.933C171.827 205.101 173.818 229.746 158.478 246.015L141.827 231.658C149.157 223.891 150.75 213.516 142.904 206.264L155.433 189.933Z" fill="#EBEBEB"/>
<path d="M140.094 232.689L149.984 252.252C154.074 250.753 157.76 248.324 160.75 245.156L142.982 230.807L140.094 232.689Z" fill="#E0E0E0"/>
<path d="M177.409 52.1085C177.265 43.3396 179.725 34.7249 184.477 27.3543C189.23 19.9837 196.062 14.1884 204.11 10.7015C212.157 7.21455 221.057 6.19273 229.685 7.76529C238.313 9.33784 246.281 13.4341 252.581 19.5359C258.88 25.6376 263.228 33.4707 265.075 42.0442C266.922 50.6176 266.184 59.5462 262.956 67.7005C259.727 75.8547 254.153 82.8682 246.937 87.8536C239.722 92.839 231.19 95.5724 222.421 95.7079C210.676 95.875 199.344 91.3801 190.907 83.2079C182.47 75.0358 177.616 63.8526 177.409 52.1085ZM242.929 51.0546C242.86 46.8635 241.551 42.7868 239.165 39.34C236.78 35.8932 233.426 33.231 229.528 31.6901C225.63 30.1493 221.363 29.7989 217.265 30.6833C213.168 31.5677 209.425 33.6472 206.509 36.6588C203.594 39.6704 201.637 43.4789 200.885 47.6027C200.134 51.7265 200.623 55.9805 202.289 59.8267C203.956 63.6729 206.725 66.9386 210.247 69.211C213.77 71.4833 217.887 72.6602 222.078 72.5928C227.697 72.4963 233.049 70.1742 236.958 66.1362C240.867 62.0982 243.015 56.6742 242.929 51.0546Z" fill="#FAFAFA"/>
<path d="M177.409 52.1085C177.231 40.3559 181.724 29.0129 189.901 20.5695C198.078 12.126 209.272 7.27196 221.024 7.07272L221.399 30.2034C215.777 30.2935 210.422 32.6129 206.511 36.6513C202.6 40.6898 200.453 46.1165 200.543 51.7377C200.634 57.3589 202.953 62.7141 206.991 66.6252C211.03 70.5362 216.457 72.6829 222.078 72.5928L222.421 95.7079C210.675 95.8791 199.341 91.3856 190.903 83.2125C182.465 75.0395 177.612 63.854 177.409 52.1085Z" fill="#E0E0E0"/>
<path d="M217.042 3.51292C245.638 3.05233 268.456 25.1448 268.909 53.74L241.844 54.1772C241.625 40.5002 231.172 31.8896 217.503 32.116L217.042 3.51292Z" fill="#F0F0F0"/>
<path d="M269.26 315.797C269.26 315.906 210.891 316 138.891 316C66.8918 316 8.52246 315.906 8.52246 315.797C8.52246 315.688 66.8762 315.586 138.891 315.586C210.906 315.586 269.26 315.68 269.26 315.797Z" fill="#263238"/>
<path d="M88.5159 207.552L233.171 206.514V208.543L88.5159 209.839V207.552Z" fill="#263238"/>
<path d="M85.3621 60.4849L88.6564 208.762L233.171 207.638V57.9946L85.3621 60.4849Z" fill="white"/>
<path d="M85.362 60.4849L233.171 57.8229H233.35V58.0024C233.35 100.837 233.35 151.384 233.35 205.311V207.849H233.147L88.633 208.949H88.4612V208.777C86.5955 119.908 85.3777 62.015 85.3386 60.4927C85.3386 61.9916 86.7282 119.908 88.8047 208.762L88.633 208.59L233.147 207.443L232.944 207.646V205.304C232.944 151.376 232.944 100.829 232.944 57.9946L233.124 58.1742L85.362 60.4849Z" fill="#263238"/>
<path d="M84.7844 61.4763L233.803 60.6254L233.99 54.3724L84.7844 55.3014V61.4763Z" fill="#263238"/>
<path d="M156.12 212.806C155.871 212.806 155.605 211.642 155.535 210.19C155.465 208.738 155.621 207.552 155.871 207.536C156.12 207.521 156.386 208.692 156.456 210.144C156.526 211.596 156.378 212.806 156.12 212.806Z" fill="#263238"/>
<path d="M156.066 211.736C156.066 211.682 156.315 211.666 156.706 211.822C156.941 211.921 157.162 212.053 157.362 212.212C157.63 212.428 157.855 212.693 158.025 212.993C158.257 213.408 158.373 213.877 158.362 214.352C158.351 214.827 158.213 215.29 157.963 215.694C157.812 215.937 157.622 216.154 157.401 216.334C157.169 216.52 156.904 216.661 156.62 216.748C156.016 216.915 155.374 216.868 154.801 216.615C154.511 216.486 154.247 216.306 154.02 216.084C153.795 215.862 153.617 215.597 153.497 215.304C153.281 214.771 153.235 214.185 153.365 213.625C153.461 213.159 153.686 212.728 154.014 212.383C154.343 212.038 154.761 211.793 155.223 211.674C155.813 211.512 156.442 211.568 156.995 211.83C157.369 212.017 157.51 212.212 157.479 212.259C157.447 212.306 157.237 212.259 156.878 212.166C156.389 212.074 155.884 212.117 155.418 212.29C155.117 212.407 154.85 212.595 154.637 212.837C154.393 213.122 154.234 213.47 154.178 213.841C154.121 214.212 154.169 214.592 154.317 214.937C154.487 215.308 154.791 215.601 155.168 215.757C155.543 215.924 155.964 215.96 156.362 215.858C156.728 215.763 157.046 215.535 157.252 215.218C157.456 214.919 157.577 214.572 157.604 214.211C157.627 214.048 157.627 213.882 157.604 213.719C157.578 213.566 157.533 213.416 157.471 213.274C157.271 212.815 156.956 212.414 156.557 212.111C156.269 211.908 156.066 211.799 156.066 211.736Z" fill="#263238"/>
<path d="M177.565 141.626C177.565 141.626 177.565 141.626 177.471 141.626H177.206L176.175 141.673L172.202 141.844L157.588 142.391C145.246 142.844 128.189 143.445 109.359 144.093L102.88 144.311H102.732V144.163C101.42 126.934 100.233 111.493 99.4138 100.392C99.0078 94.8492 98.6878 90.3917 98.4614 87.3237C98.3599 85.7624 98.274 84.5992 98.2194 83.7952C98.2194 83.3892 98.1725 83.0848 98.1647 82.874C98.1569 82.6632 98.1647 82.6944 98.1647 82.6398C98.1647 82.5851 98.1647 82.5617 98.1647 82.5617C98.1684 82.5876 98.1684 82.6139 98.1647 82.6398C98.1647 82.6944 98.1647 82.7725 98.1647 82.874C98.1647 82.9755 98.2116 83.3892 98.2506 83.7873C98.313 84.568 98.4145 85.778 98.5472 87.3159C98.7893 90.3838 99.1483 94.8414 99.5933 100.368C100.468 111.438 101.67 126.84 102.997 144.14L102.841 143.999L109.32 143.773C128.15 143.132 145.23 142.563 157.549 142.172L172.171 141.72L176.144 141.61H177.174H177.534L177.565 141.626Z" fill="#455A64"/>
<path d="M125.238 77.7607V79.7514L145.831 78.7678V77.0972L125.238 77.7607Z" fill="#263238"/>
<path d="M109.648 139.924H116.807L115.683 120.494H108.665L109.648 139.924Z" fill="#E67F00"/>
<path d="M122.623 139.932H129.773L128.657 112.773H121.639L122.623 139.932Z" fill="#E67F00"/>
<path d="M134.77 139.065H141.928L140.804 103.507H133.794L134.77 139.065Z" fill="#E67F00"/>
<path d="M162.639 137.684H169.789L168.673 89.2207H161.655L162.639 137.684Z" fill="#E67F00"/>
<path d="M149.079 137.847H156.23L155.105 96.1451H148.095L149.079 137.847Z" fill="#E67F00"/>
<path d="M105.152 115.458C104.964 115.17 117.751 106.645 133.7 96.4183C149.649 86.1918 162.748 78.1354 162.936 78.4633C163.123 78.7912 150.336 87.2769 134.379 97.5034C118.423 107.73 105.323 115.747 105.152 115.458Z" fill="#E67F00"/>
<path d="M155.855 78.4321C155.792 78.0886 160.422 76.9332 166.214 75.8403L167.682 75.5671L166.846 76.8083L166.8 76.8786C163.49 81.7967 160.554 85.6297 160.281 85.4658C160.008 85.3018 162.451 81.1331 165.746 76.2072L165.793 76.137L166.433 77.105C160.648 78.1588 155.917 78.7678 155.855 78.4321Z" fill="#E67F00"/>
<path d="M108.665 146.489H116.143L116.378 147.816H108.665V146.489Z" fill="#263238"/>
<path d="M121.904 145.943H129.383L129.617 147.27H121.904V145.943Z" fill="#263238"/>
<path d="M135.535 145.553H143.013L143.248 146.88H135.535V145.553Z" fill="#263238"/>
<path d="M148.306 145.232H155.785L156.019 146.567H148.306V145.232Z" fill="#263238"/>
<path d="M164.13 144.764H171.608L171.843 146.099H164.13V144.764Z" fill="#263238"/>
<path d="M197.674 197.677C210.859 197.677 221.547 186.989 221.547 173.804C221.547 160.62 210.859 149.932 197.674 149.932C184.49 149.932 173.802 160.62 173.802 173.804C173.802 186.989 184.49 197.677 197.674 197.677Z" fill="#E67F00"/>
<path opacity="0.3" d="M197.674 197.677C210.859 197.677 221.547 186.989 221.547 173.804C221.547 160.62 210.859 149.932 197.674 149.932C184.49 149.932 173.802 160.62 173.802 173.804C173.802 186.989 184.49 197.677 197.674 197.677Z" fill="black"/>
<path d="M197.674 173.773L174.388 179.011C170.64 161.837 184.489 149.901 197.674 149.901" fill="#E67F00"/>
<path d="M197.706 173.773L197.55 149.901C215.13 149.901 223.842 165.974 221.032 178.855L197.706 173.773Z" fill="#E67F00"/>
<path d="M197.706 173.773L197.55 149.901C215.13 149.901 223.842 165.974 221.032 178.855L197.706 173.773Z" fill="#E67F00"/>
<path opacity="0.1" d="M197.706 173.773L197.55 149.901C215.13 149.901 223.842 165.974 221.032 178.855L197.706 173.773Z" fill="black"/>
<path d="M222.163 117.277C221.7 116.967 221.205 116.706 220.688 116.497C219.246 116.056 217.699 116.1 216.285 116.622C214.458 117.191 212.647 118.643 210.891 120.462C209.134 122.281 207.253 124.483 204.505 125.771C203.179 126.43 201.687 126.677 200.219 126.481C198.895 126.206 197.616 125.749 196.417 125.123C195.362 124.574 194.235 124.177 193.068 123.944C192.054 123.785 191.015 123.915 190.071 124.319C188.681 124.908 187.545 125.97 186.862 127.316C186.643 127.822 186.463 128.344 186.324 128.878C186.348 128.313 186.483 127.759 186.722 127.246C187.375 125.825 188.524 124.69 189.954 124.053C190.933 123.617 192.014 123.463 193.076 123.608C194.281 123.832 195.448 124.226 196.542 124.779C197.709 125.385 198.955 125.826 200.243 126.091C201.631 126.264 203.04 126.025 204.294 125.404C206.933 124.17 208.783 121.985 210.586 120.197C212.39 118.409 214.255 116.903 216.152 116.348C217.626 115.834 219.23 115.834 220.703 116.348C221.097 116.5 221.467 116.705 221.804 116.957C221.937 117.049 222.057 117.156 222.163 117.277Z" fill="#263238"/>
<path d="M224.185 132.703C224.185 132.82 215.707 132.906 205.254 132.906C194.801 132.906 186.324 132.82 186.324 132.703C186.324 132.586 194.801 132.5 205.254 132.5C215.707 132.5 224.185 132.594 224.185 132.703Z" fill="#263238"/>
<path d="M222.077 132.703C221.968 132.703 221.875 127.879 221.875 121.922C221.875 115.966 221.968 111.149 222.077 111.149C222.187 111.149 222.28 115.974 222.28 121.922C222.28 127.871 222.195 132.703 222.077 132.703Z" fill="#263238"/>
<path d="M190.141 123.624C190.141 123.624 190.087 123.546 190.141 123.405C190.177 123.307 190.234 123.217 190.308 123.143C190.382 123.069 190.472 123.012 190.571 122.976C190.719 122.91 190.883 122.887 191.044 122.907C191.205 122.928 191.357 122.992 191.484 123.093C191.622 123.247 191.703 123.444 191.714 123.65C191.726 123.857 191.667 124.061 191.547 124.23C191.427 124.398 191.254 124.521 191.055 124.579C190.857 124.636 190.645 124.624 190.453 124.545C190.319 124.465 190.208 124.35 190.133 124.213C190.058 124.076 190.02 123.921 190.024 123.765C190.022 123.66 190.042 123.557 190.081 123.461C190.119 123.364 190.177 123.276 190.251 123.202C190.368 123.109 190.453 123.109 190.461 123.124C190.469 123.14 190.25 123.351 190.305 123.749C190.316 123.851 190.351 123.95 190.406 124.036C190.462 124.123 190.537 124.196 190.625 124.249C190.735 124.276 190.85 124.27 190.956 124.231C191.062 124.192 191.154 124.122 191.22 124.031C191.285 123.939 191.322 123.829 191.325 123.716C191.327 123.603 191.296 123.492 191.234 123.398C191.156 123.333 191.063 123.289 190.964 123.269C190.864 123.248 190.762 123.252 190.664 123.281C190.266 123.343 190.196 123.64 190.141 123.624Z" fill="#263238"/>
<path d="M215.668 115.794C215.668 115.794 215.668 115.7 215.809 115.622C215.991 115.531 216.201 115.514 216.394 115.575C216.548 115.617 216.688 115.701 216.798 115.816C216.908 115.932 216.985 116.075 217.019 116.231C217.031 116.433 216.975 116.632 216.86 116.798C216.744 116.963 216.577 117.085 216.384 117.144C216.191 117.202 215.984 117.194 215.796 117.121C215.608 117.047 215.45 116.913 215.348 116.739C215.292 116.588 215.278 116.425 215.306 116.267C215.335 116.109 215.406 115.962 215.512 115.841C215.644 115.685 215.832 115.587 216.035 115.568C216.176 115.568 216.246 115.614 216.238 115.638C216.23 115.661 215.942 115.677 215.746 116.013C215.692 116.096 215.659 116.191 215.648 116.29C215.637 116.389 215.649 116.489 215.684 116.583C215.753 116.667 215.845 116.729 215.949 116.76C216.053 116.792 216.164 116.792 216.268 116.76C216.372 116.728 216.464 116.666 216.532 116.581C216.601 116.497 216.642 116.394 216.652 116.286C216.631 116.189 216.588 116.098 216.526 116.02C216.463 115.943 216.384 115.882 216.293 115.841C215.949 115.669 215.707 115.849 215.668 115.794Z" fill="#263238"/>
<path d="M221.406 90.2433C221.406 90.3526 213.194 90.4463 203.069 90.4463C192.944 90.4463 184.731 90.3526 184.731 90.2433C184.731 90.134 192.936 90.0404 203.069 90.0404C213.202 90.0404 221.406 90.1497 221.406 90.2433Z" fill="#263238"/>
<path d="M221.406 95.3566C221.406 95.4737 213.194 95.5596 203.069 95.5596C192.944 95.5596 184.731 95.4737 184.731 95.3566C184.731 95.2395 192.936 95.1536 203.069 95.1536C213.202 95.1536 221.406 95.2473 221.406 95.3566Z" fill="#263238"/>
<path d="M221.406 100.454C221.406 100.564 213.194 100.657 203.069 100.657C192.944 100.657 184.731 100.564 184.731 100.454C184.731 100.345 192.936 100.251 203.069 100.251C213.202 100.251 221.406 100.337 221.406 100.454Z" fill="#263238"/>
<path d="M221.406 105.544C221.406 105.661 213.194 105.747 203.069 105.747C192.944 105.747 184.731 105.661 184.731 105.544C184.731 105.427 192.936 105.341 203.069 105.341C213.202 105.341 221.406 105.435 221.406 105.544Z" fill="#263238"/>
<path d="M204.247 80.9458H184.731V82.5929H204.247V80.9458Z" fill="#263238"/>
<path d="M123.684 162.727H104.168V164.374H123.684V162.727Z" fill="#263238"/>
<path d="M157.572 172.274C157.572 172.391 145.73 172.477 131.124 172.477C116.518 172.477 104.667 172.391 104.667 172.274C104.667 172.157 116.51 172.071 131.124 172.071C145.738 172.071 157.572 172.165 157.572 172.274Z" fill="#263238"/>
<path d="M157.885 176.896C157.885 177.005 145.831 177.099 130.968 177.099C116.104 177.099 104.051 177.005 104.051 176.896C104.051 176.786 116.096 176.693 130.968 176.693C145.839 176.693 157.885 176.802 157.885 176.896Z" fill="#263238"/>
<path d="M158.501 181.252C158.501 181.361 146.378 181.455 131.428 181.455C116.479 181.455 104.355 181.361 104.355 181.252C104.355 181.142 116.479 181.049 131.428 181.049C146.378 181.049 158.501 181.135 158.501 181.252Z" fill="#263238"/>
<path d="M132.513 185.889C132.513 185.998 126.268 186.092 118.587 186.092C110.905 186.092 104.667 185.998 104.667 185.889C104.667 185.779 110.913 185.686 118.587 185.686C126.26 185.686 132.513 185.779 132.513 185.889Z" fill="#263238"/>
<path d="M47.5005 312.261V305.235L34.2841 305.118L34.1748 315.446L34.9555 315.5C38.6011 315.727 53.5037 316.39 55.9472 315.672C58.7107 314.86 47.5005 312.261 47.5005 312.261Z" fill="#E67F00"/>
<path d="M56.2985 315.024C56.2985 315.149 51.357 315.251 45.2601 315.251C39.1632 315.251 34.2139 315.149 34.2139 315.024C34.2139 314.899 39.1632 314.798 45.2601 314.798C51.357 314.798 56.2985 314.899 56.2985 315.024Z" fill="#263238"/>
<path d="M47.7348 313.705C47.6255 313.642 47.7348 313.26 48.0002 312.924C48.2656 312.589 48.6325 312.37 48.7106 312.456C48.7886 312.542 48.6169 312.862 48.3593 313.236C48.1017 313.611 47.8441 313.767 47.7348 313.705Z" fill="#263238"/>
<path d="M48.5779 314.165C48.4608 314.119 48.5232 313.697 48.7808 313.26C49.0385 312.823 49.3819 312.557 49.4756 312.635C49.5693 312.713 49.4132 313.08 49.1712 313.486C48.9292 313.892 48.695 314.212 48.5779 314.165Z" fill="#263238"/>
<path d="M38.1872 314.977C38.1325 315.016 37.9296 314.829 37.6407 314.517C37.2891 314.109 36.8997 313.735 36.4776 313.4C36.0566 313.091 35.566 312.89 35.049 312.815C34.6508 312.76 34.3932 312.815 34.3698 312.753C34.3464 312.69 34.5962 312.526 35.0568 312.495C35.6637 312.477 36.2585 312.667 36.743 313.034C37.2048 313.387 37.5966 313.824 37.8983 314.322C38.1403 314.689 38.2496 314.938 38.1872 314.977Z" fill="#263238"/>
<path d="M47.7735 312.378C47.836 312.479 47.6018 312.729 47.2271 312.862C46.8523 312.995 46.5167 312.948 46.501 312.823C46.4854 312.698 46.743 312.557 47.0787 312.44C47.4144 312.323 47.7032 312.268 47.7735 312.378Z" fill="#263238"/>
<path d="M47.5551 311.691C47.5551 311.816 47.2116 311.925 46.7744 311.933C46.3373 311.941 45.9938 311.839 45.9938 311.714C45.9938 311.589 46.3529 311.488 46.7744 311.48C47.196 311.472 47.5551 311.566 47.5551 311.691Z" fill="#E67F00"/>
<path d="M56.2985 315.024C56.2985 315.149 51.357 315.251 45.2601 315.251C39.1632 315.251 34.2139 315.149 34.2139 315.024C34.2139 314.899 39.1632 314.798 45.2601 314.798C51.357 314.798 56.2985 314.899 56.2985 315.024Z" fill="#263238"/>
<path d="M47.7348 313.705C47.6255 313.642 47.7348 313.26 48.0002 312.924C48.2656 312.589 48.6325 312.37 48.7106 312.456C48.7886 312.542 48.6169 312.862 48.3593 313.236C48.1017 313.611 47.8441 313.767 47.7348 313.705Z" fill="#263238"/>
<path d="M48.5779 314.165C48.4608 314.119 48.5232 313.697 48.7808 313.26C49.0385 312.823 49.3819 312.557 49.4756 312.635C49.5693 312.713 49.4132 313.08 49.1712 313.486C48.9292 313.892 48.695 314.212 48.5779 314.165Z" fill="#263238"/>
<path d="M38.1872 314.977C38.1325 315.016 37.9296 314.829 37.6407 314.517C37.2891 314.109 36.8997 313.735 36.4776 313.4C36.0566 313.091 35.566 312.89 35.049 312.815C34.6508 312.76 34.3932 312.815 34.3698 312.753C34.3464 312.69 34.5962 312.526 35.0568 312.495C35.6637 312.477 36.2585 312.667 36.743 313.034C37.2048 313.387 37.5966 313.824 37.8983 314.322C38.1403 314.689 38.2496 314.938 38.1872 314.977Z" fill="#263238"/>
<path d="M47.7735 312.378C47.836 312.479 47.6018 312.729 47.2271 312.862C46.8523 312.995 46.5167 312.948 46.501 312.823C46.4854 312.698 46.743 312.557 47.0787 312.44C47.4144 312.323 47.7032 312.268 47.7735 312.378Z" fill="#263238"/>
<path d="M47.5551 311.691C47.5551 311.816 47.2116 311.925 46.7744 311.933C46.3373 311.941 45.9938 311.839 45.9938 311.714C45.9938 311.589 46.3529 311.488 46.7744 311.48C47.196 311.472 47.5551 311.566 47.5551 311.691Z" fill="#263238"/>
<path d="M61.4428 309.763L63.5271 303.026L50.9274 299.029L47.8048 308.857L48.5855 309.154C51.9969 310.45 66.0408 315.493 68.5858 315.532C71.3805 315.563 61.4428 309.763 61.4428 309.763Z" fill="#E67F00"/>
<path d="M69.0307 315.001C69.0307 315.126 64.2375 313.76 58.4138 311.948C52.5902 310.137 47.8985 308.584 47.9375 308.467C47.9765 308.35 52.7229 309.716 58.5544 311.519C64.3858 313.322 69.0697 314.884 69.0307 315.001Z" fill="#263238"/>
<path d="M61.2399 311.207C61.154 311.113 61.357 310.785 61.7317 310.512C62.1064 310.239 62.5124 310.169 62.5514 310.278C62.5904 310.387 62.3406 310.637 61.9971 310.887C61.6536 311.137 61.3258 311.293 61.2399 311.207Z" fill="#263238"/>
<path d="M61.9035 311.902C61.8098 311.823 61.9893 311.433 62.3719 311.121C62.7544 310.809 63.1525 310.629 63.2228 310.731C63.293 310.832 63.0276 311.137 62.6763 311.457C62.325 311.777 62.005 311.948 61.9035 311.902Z" fill="#263238"/>
<path d="M51.755 309.606C51.6926 309.606 51.5599 309.396 51.3803 309.005C51.1659 308.513 50.9045 308.042 50.5997 307.6C50.2897 307.181 49.8825 306.843 49.4131 306.617C49.0462 306.453 48.7808 306.421 48.7808 306.359C48.7808 306.296 49.0618 306.203 49.5146 306.312C50.0968 306.477 50.6059 306.835 50.9588 307.327C51.293 307.799 51.539 308.328 51.6848 308.888C51.7863 309.31 51.8097 309.606 51.755 309.606Z" fill="#455A64"/>
<path d="M61.6693 309.95C61.6693 310.067 61.4038 310.239 61.0057 310.254C60.6076 310.27 60.2953 310.122 60.3187 309.997C60.3422 309.872 60.6388 309.817 60.9901 309.802C61.3414 309.786 61.6068 309.825 61.6693 309.95Z" fill="#263238"/>
<path d="M61.6693 309.24C61.6693 309.357 61.279 309.357 60.8496 309.24C60.4203 309.122 60.1158 308.912 60.1549 308.795C60.1939 308.677 60.5686 308.685 60.9745 308.795C61.3805 308.904 61.7005 309.115 61.6693 309.24Z" fill="#263238"/>
<path d="M70.4125 172.704L53.0664 171.369L26.7897 169.237L29.7249 310.387L52.5434 310.09C52.5434 310.09 52.5434 308.529 52.4887 305.766L65.8691 309.427C65.8691 309.427 78.906 265.383 83.3479 247.31C87.056 232.252 70.4125 172.704 70.4125 172.704ZM52.2389 283.845C51.8954 251.261 51.4973 195.85 51.9735 189.074C51.9735 189.074 64.6825 237.857 64.7996 241.705C64.8777 244.032 57.7972 266.546 52.2389 283.845Z" fill="#455A64"/>
<path d="M52.6682 304.743C52.6682 304.868 47.5627 304.969 41.2707 304.969C34.9786 304.969 29.8654 304.868 29.8654 304.743C29.8654 304.618 34.9708 304.517 41.2707 304.517C47.5705 304.517 52.6682 304.618 52.6682 304.743Z" fill="#455A64"/>
<path d="M52.4655 299.669C53.1792 299.838 53.8787 300.062 54.5576 300.34L59.7802 302.159L65.0027 303.986C65.7413 304.197 66.4577 304.479 67.1417 304.829C66.3791 304.723 65.6287 304.542 64.9012 304.29C63.5429 303.892 61.6771 303.299 59.6318 302.588C57.5865 301.878 55.7286 301.175 54.4483 300.637C53.7457 300.407 53.0784 300.082 52.4655 299.669Z" fill="#455A64"/>
<path d="M73.3712 241.268C71.9599 241.597 70.5185 241.78 69.0698 241.815C67.633 241.998 66.181 242.032 64.7372 241.916C66.1476 241.581 67.5893 241.396 69.0386 241.362C70.4755 241.179 71.9277 241.147 73.3712 241.268Z" fill="#455A64"/>
<path d="M71.8802 243.829C70.758 243.734 69.6531 243.493 68.5936 243.111C67.4911 242.87 66.4253 242.484 65.4242 241.963C66.5496 242.048 67.658 242.287 68.7185 242.673C70.4984 243.189 71.9192 243.704 71.8802 243.829Z" fill="#455A64"/>
<path d="M54.0737 171.548C54.1786 172.439 54.2177 173.337 54.1908 174.234C54.1908 175.896 54.1908 178.192 54.1908 180.729C54.1908 181.986 54.1908 183.188 54.144 184.296C54.1725 185.295 53.9862 186.288 53.5975 187.208C53.3206 187.835 52.878 188.375 52.3172 188.769C52.126 188.928 51.8977 189.035 51.6537 189.082C51.6537 189.082 51.8723 188.941 52.2236 188.644C52.7165 188.222 53.0996 187.686 53.3399 187.083C53.6654 186.189 53.8113 185.239 53.7693 184.288C53.7693 183.172 53.7693 181.946 53.7693 180.713C53.7693 178.176 53.8317 175.881 53.8785 174.226C53.876 173.33 53.9413 172.435 54.0737 171.548Z" fill="#455A64"/>
<path d="M41.0133 170.752C41.0217 170.866 41.0217 170.981 41.0133 171.095C41.0133 171.345 41.0133 171.681 41.0133 172.11C41.0133 173.016 40.943 174.327 40.8884 176.014C40.7791 179.409 40.623 184.288 40.4278 190.307C40.0609 202.376 39.6862 219.059 39.5925 237.474C39.4988 255.89 39.7096 272.604 39.9516 284.665C40.0843 290.683 40.1858 295.594 40.2639 298.958C40.2639 300.637 40.3263 301.94 40.3497 302.862C40.3497 303.291 40.3497 303.642 40.3497 303.876C40.3581 303.991 40.3581 304.106 40.3497 304.22C40.3413 304.106 40.3413 303.991 40.3497 303.876C40.3497 303.634 40.3497 303.299 40.2951 302.869C40.2951 301.956 40.2092 300.652 40.139 298.966C40.0063 295.594 39.8501 290.707 39.694 284.672C39.3739 272.596 39.1241 255.913 39.2178 237.474C39.3115 219.035 39.733 202.345 40.1702 190.299C40.3888 184.265 40.5917 179.37 40.7635 176.006C40.8494 174.335 40.9196 173.031 40.9665 172.102C40.9665 171.673 41.0133 171.322 41.0289 171.088C41.0157 170.976 41.0105 170.864 41.0133 170.752Z" fill="#455A64"/>
<path d="M64.7294 174.304C64.7768 174.407 64.816 174.514 64.8465 174.624C64.9168 174.858 65.0183 175.17 65.1432 175.576C65.393 176.412 65.7911 177.645 66.2283 179.253C67.126 182.462 68.336 187.122 69.6866 192.922C71.0371 198.723 72.5359 205.639 74.0972 213.352C75.6585 221.065 77.3057 229.558 78.7811 238.52C78.9685 239.644 79.1402 240.761 79.2886 241.877C79.2886 242.174 79.3432 242.478 79.3432 242.767L79.2027 243.595C79.1012 244.149 79.0231 244.703 78.8982 245.242C78.4533 247.412 77.9537 249.535 77.415 251.612C76.3533 255.765 75.2292 259.738 74.1207 263.517C71.9192 271.073 69.7958 277.834 67.9925 283.509C66.1892 289.185 64.6826 293.751 63.6209 296.905L62.3875 300.535L62.0518 301.48C62.0227 301.589 61.9807 301.693 61.9269 301.792C61.9473 301.681 61.976 301.571 62.0128 301.464C62.0908 301.23 62.1845 300.918 62.3094 300.512L63.4726 296.858L67.7193 283.423C69.4836 277.74 71.5757 270.972 73.7616 263.415C74.8545 259.637 75.9708 255.656 77.0325 251.51C77.5633 249.442 78.0629 247.326 78.5079 245.164C78.6328 244.625 78.7031 244.079 78.7968 243.532L78.9373 242.712C78.9373 242.447 78.8982 242.189 78.8826 241.932C78.7343 240.831 78.5704 239.715 78.383 238.598C76.8998 229.644 75.2604 221.151 73.6991 213.438C72.1378 205.725 70.7248 198.754 69.4133 192.985C68.1018 187.216 66.923 182.509 66.0721 179.292C65.6662 177.684 65.2915 176.443 65.0651 175.6L64.8075 174.64C64.7692 174.531 64.743 174.418 64.7294 174.304Z" fill="#455A64"/>
<path d="M52.1688 280.98C52.2317 281.343 52.2552 281.712 52.2391 282.081C52.2391 282.861 52.2391 283.884 52.2781 285.094C52.2781 287.709 52.3718 291.183 52.4264 295.016C52.4811 298.849 52.6294 302.323 52.6997 304.938C52.6997 306.148 52.7621 307.163 52.7855 307.951C52.8208 308.318 52.8208 308.686 52.7855 309.052C52.6994 308.694 52.6523 308.328 52.645 307.959C52.5826 307.249 52.5123 306.226 52.4342 304.954C52.2781 302.417 52.1298 298.904 52.0439 295.024C51.9581 291.144 51.9737 287.631 52.0439 285.094C52.0439 283.822 52.0986 282.752 52.1298 282.081C52.114 281.713 52.127 281.345 52.1688 280.98Z" fill="#455A64"/>
<path d="M70.4125 172.704L53.0664 171.369L26.7897 169.237L29.7249 310.387L52.5434 310.09C52.5434 310.09 52.5434 308.529 52.4887 305.766L65.8691 309.427C65.8691 309.427 78.906 265.383 83.3479 247.31C87.056 232.252 70.4125 172.704 70.4125 172.704ZM52.2389 283.845C51.8954 251.261 51.4973 195.85 51.9735 189.074C51.9735 189.074 64.6825 237.857 64.7996 241.705C64.8777 244.032 57.7972 266.546 52.2389 283.845Z" fill="#263238"/>
<path d="M52.6682 304.743C52.6682 304.868 47.5627 304.969 41.2707 304.969C34.9786 304.969 29.8654 304.868 29.8654 304.743C29.8654 304.618 34.9708 304.517 41.2707 304.517C47.5705 304.517 52.6682 304.618 52.6682 304.743Z" fill="#455A64"/>
<path d="M52.4655 299.669C53.1792 299.838 53.8787 300.062 54.5576 300.34L59.7802 302.159L65.0027 303.986C65.7413 304.197 66.4577 304.479 67.1417 304.829C66.3791 304.723 65.6287 304.542 64.9012 304.29C63.5429 303.892 61.6771 303.299 59.6318 302.588C57.5865 301.878 55.7286 301.175 54.4483 300.637C53.7457 300.407 53.0784 300.082 52.4655 299.669Z" fill="#455A64"/>
<path d="M73.3712 241.268C71.9599 241.597 70.5185 241.78 69.0698 241.815C67.633 241.998 66.181 242.032 64.7372 241.916C66.1476 241.581 67.5893 241.396 69.0386 241.362C70.4755 241.179 71.9277 241.147 73.3712 241.268Z" fill="#455A64"/>
<path d="M71.8802 243.829C70.758 243.734 69.6531 243.493 68.5936 243.111C67.4911 242.87 66.4253 242.484 65.4242 241.963C66.5496 242.048 67.658 242.287 68.7185 242.673C70.4984 243.189 71.9192 243.704 71.8802 243.829Z" fill="#455A64"/>
<path d="M54.0737 171.548C54.1786 172.439 54.2177 173.337 54.1908 174.234C54.1908 175.896 54.1908 178.192 54.1908 180.729C54.1908 181.986 54.1908 183.188 54.144 184.296C54.1725 185.295 53.9862 186.288 53.5975 187.208C53.3206 187.835 52.878 188.375 52.3172 188.769C52.126 188.928 51.8977 189.035 51.6537 189.082C51.6537 189.082 51.8723 188.941 52.2236 188.644C52.7165 188.222 53.0996 187.686 53.3399 187.083C53.6654 186.189 53.8113 185.239 53.7693 184.288C53.7693 183.172 53.7693 181.946 53.7693 180.713C53.7693 178.176 53.8317 175.881 53.8785 174.226C53.876 173.33 53.9413 172.435 54.0737 171.548Z" fill="#455A64"/>
<path d="M41.0133 170.752C41.0217 170.866 41.0217 170.981 41.0133 171.095C41.0133 171.345 41.0133 171.681 41.0133 172.11C41.0133 173.016 40.943 174.327 40.8884 176.014C40.7791 179.409 40.623 184.288 40.4278 190.307C40.0609 202.376 39.6862 219.059 39.5925 237.474C39.4988 255.89 39.7096 272.604 39.9516 284.665C40.0843 290.683 40.1858 295.594 40.2639 298.958C40.2639 300.637 40.3263 301.94 40.3497 302.862C40.3497 303.291 40.3497 303.642 40.3497 303.876C40.3581 303.991 40.3581 304.106 40.3497 304.22C40.3413 304.106 40.3413 303.991 40.3497 303.876C40.3497 303.634 40.3497 303.299 40.2951 302.869C40.2951 301.956 40.2092 300.652 40.139 298.966C40.0063 295.594 39.8501 290.707 39.694 284.672C39.3739 272.596 39.1241 255.913 39.2178 237.474C39.3115 219.035 39.733 202.345 40.1702 190.299C40.3888 184.265 40.5917 179.37 40.7635 176.006C40.8494 174.335 40.9196 173.031 40.9665 172.102C40.9665 171.673 41.0133 171.322 41.0289 171.088C41.0157 170.976 41.0105 170.864 41.0133 170.752Z" fill="#455A64"/>
<path d="M64.7294 174.304C64.7768 174.407 64.816 174.514 64.8465 174.624C64.9168 174.858 65.0183 175.17 65.1432 175.576C65.393 176.412 65.7911 177.645 66.2283 179.253C67.126 182.462 68.336 187.122 69.6866 192.922C71.0371 198.723 72.5359 205.639 74.0972 213.352C75.6585 221.065 77.3057 229.558 78.7811 238.52C78.9685 239.644 79.1402 240.761 79.2886 241.877C79.2886 242.174 79.3432 242.478 79.3432 242.767L79.2027 243.595C79.1012 244.149 79.0231 244.703 78.8982 245.242C78.4533 247.412 77.9537 249.535 77.415 251.612C76.3533 255.765 75.2292 259.738 74.1207 263.517C71.9192 271.073 69.7958 277.834 67.9925 283.509C66.1892 289.185 64.6826 293.751 63.6209 296.905L62.3875 300.535L62.0518 301.48C62.0227 301.589 61.9807 301.693 61.9269 301.792C61.9473 301.681 61.976 301.571 62.0128 301.464C62.0908 301.23 62.1845 300.918 62.3094 300.512L63.4726 296.858L67.7193 283.423C69.4836 277.74 71.5757 270.972 73.7616 263.415C74.8545 259.637 75.9708 255.656 77.0325 251.51C77.5633 249.442 78.0629 247.326 78.5079 245.164C78.6328 244.625 78.7031 244.079 78.7968 243.532L78.9373 242.712C78.9373 242.447 78.8982 242.189 78.8826 241.932C78.7343 240.831 78.5704 239.715 78.383 238.598C76.8998 229.644 75.2604 221.151 73.6991 213.438C72.1378 205.725 70.7248 198.754 69.4133 192.985C68.1018 187.216 66.923 182.509 66.0721 179.292C65.6662 177.684 65.2915 176.443 65.0651 175.6L64.8075 174.64C64.7692 174.531 64.743 174.418 64.7294 174.304Z" fill="#455A64"/>
<path d="M52.1688 280.98C52.2317 281.343 52.2552 281.712 52.2391 282.081C52.2391 282.861 52.2391 283.884 52.2781 285.094C52.2781 287.709 52.3718 291.183 52.4264 295.016C52.4811 298.849 52.6294 302.323 52.6997 304.938C52.6997 306.148 52.7621 307.163 52.7855 307.951C52.8208 308.318 52.8208 308.686 52.7855 309.052C52.6994 308.694 52.6523 308.328 52.645 307.959C52.5826 307.249 52.5123 306.226 52.4342 304.954C52.2781 302.417 52.1298 298.904 52.0439 295.024C51.9581 291.144 51.9737 287.631 52.0439 285.094C52.0439 283.822 52.0986 282.752 52.1298 282.081C52.114 281.713 52.127 281.345 52.1688 280.98Z" fill="#455A64"/>
<path d="M40.5291 104.959L53.8002 105.942C53.9797 104.381 54.2373 98.4402 54.2373 98.4402C54.2373 98.4402 59.7722 97.9328 60.1781 92.4526C60.584 86.9724 60.4123 74.318 60.4123 74.318C57.3782 72.7845 53.9895 72.0896 50.5967 72.305C47.2039 72.5205 43.9303 73.6386 41.1146 75.5437L40.2637 76.1213L40.5291 104.959Z" fill="#E5BAAB"/>
<path d="M58.5233 83.6625C58.4181 83.5517 58.3477 83.4126 58.3208 83.2623C58.2939 83.112 58.3117 82.9571 58.3719 82.8168C58.4321 82.6765 58.5322 82.5569 58.6597 82.4729C58.7872 82.3889 58.9365 82.3441 59.0892 82.3441C59.2419 82.3441 59.3913 82.3889 59.5188 82.4729C59.6463 82.5569 59.7463 82.6765 59.8066 82.8168C59.8668 82.9571 59.8846 83.112 59.8577 83.2623C59.8308 83.4126 59.7604 83.5517 59.6552 83.6625C59.5823 83.7392 59.4945 83.8003 59.3972 83.8421C59.2999 83.8839 59.1951 83.9054 59.0892 83.9054C58.9834 83.9054 58.8786 83.8839 58.7813 83.8421C58.684 83.8003 58.5962 83.7392 58.5233 83.6625Z" fill="#263238"/>
<path d="M59.9285 82.4915C59.8348 82.5851 59.3274 82.1402 58.5701 82.0855C57.8129 82.0309 57.243 82.39 57.165 82.2885C57.0869 82.187 57.2196 82.0777 57.4772 81.9138C57.8094 81.6956 58.2056 81.5966 58.6014 81.6327C59.0001 81.6565 59.3794 81.8132 59.6787 82.0777C59.9051 82.2729 59.9753 82.4368 59.9285 82.4915Z" fill="#263238"/>
<path d="M51.1851 82.6164C51.3087 82.7067 51.403 82.8313 51.4564 82.9748C51.5097 83.1183 51.5197 83.2743 51.485 83.4234C51.4504 83.5726 51.3726 83.7082 51.2615 83.8135C51.1504 83.9188 51.0107 83.989 50.86 84.0156C50.7092 84.0421 50.554 84.0238 50.4136 83.9628C50.2731 83.9018 50.1538 83.8008 50.0703 83.6725C49.9868 83.5442 49.9429 83.3942 49.944 83.2411C49.9451 83.088 49.9912 82.9386 50.0765 82.8115C50.1351 82.7243 50.2108 82.6497 50.2989 82.5924C50.387 82.5351 50.4857 82.4962 50.5893 82.4779C50.6928 82.4597 50.7989 82.4626 50.9013 82.4864C51.0037 82.5101 51.1002 82.5544 51.1851 82.6164Z" fill="#263238"/>
<path d="M51.685 82.6554C51.5913 82.7413 51.0839 82.2963 50.3267 82.2416C49.5694 82.187 48.9996 82.5539 48.9215 82.4524C48.8434 82.3509 48.9761 82.2338 49.2259 82.0699C49.5644 81.8597 49.9604 81.7614 50.3579 81.7889C50.7554 81.8178 51.1331 81.9738 51.4352 82.2338C51.6616 82.4368 51.7318 82.6164 51.685 82.6554Z" fill="#263238"/>
<path d="M54.3311 89.0723C54.7305 88.9489 55.1466 88.8883 55.5646 88.8928C55.7675 88.8928 55.9315 88.8538 55.9549 88.7445C55.9746 88.5429 55.9367 88.3399 55.8456 88.159L55.346 86.5977C54.8653 85.2628 54.5124 83.8853 54.2921 82.4836C54.897 83.7653 55.3805 85.1009 55.7363 86.4728L56.2047 88.0341C56.3174 88.2924 56.3394 88.5813 56.2672 88.8538C56.2344 88.9268 56.1847 88.9911 56.1223 89.0413C56.0599 89.0915 55.9865 89.1262 55.9081 89.1426C55.7966 89.1571 55.6838 89.1571 55.5724 89.1426C55.1575 89.1856 54.7385 89.1619 54.3311 89.0723Z" fill="#263238"/>
<path d="M51.8253 89.7515C51.0447 89.2363 53.9175 91.0396 55.4632 91.063C55.1824 91.4434 54.7807 91.7171 54.3239 91.8391C53.8672 91.9611 53.3825 91.9241 52.9495 91.7344C51.3413 91.024 51.8253 89.7515 51.8253 89.7515Z" fill="white"/>
<path d="M54.2063 98.3621C51.6715 98.255 49.2258 97.3963 47.1804 95.8952C47.1804 95.8952 48.6246 99.9468 54.1282 99.7985L54.2063 98.3621Z" fill="#D78776"/>
<path d="M41.3101 80.9848C41.1852 80.938 37.2351 80.4227 37.6098 85.091C37.9845 89.7593 42.5747 87.8311 42.5669 87.6984C42.5591 87.5657 41.3101 80.9848 41.3101 80.9848Z" fill="#E5BAAB"/>
<path d="M40.9666 86.1761C40.9666 86.1761 40.8963 86.2386 40.7636 86.3167C40.5756 86.413 40.3583 86.4353 40.1547 86.3791C39.8386 86.2105 39.5726 85.9614 39.3834 85.6572C39.1943 85.3529 39.0887 85.0041 39.0774 84.6461C39.0344 84.2476 39.0824 83.8445 39.2179 83.4673C39.2491 83.318 39.3158 83.1783 39.4123 83.0601C39.5087 82.9419 39.6321 82.8486 39.7722 82.7881C39.8644 82.7584 39.9639 82.7607 40.0546 82.7948C40.1453 82.8288 40.2219 82.8925 40.2718 82.9755C40.342 83.1004 40.3264 83.194 40.3499 83.2019C40.3733 83.2097 40.4435 83.116 40.3499 82.9286C40.3173 82.814 40.2454 82.7145 40.1469 82.6476C40.0084 82.5652 39.8442 82.5374 39.6863 82.5695C39.5004 82.6222 39.331 82.7216 39.1943 82.8582C39.0577 82.9949 38.9583 83.1642 38.9056 83.3502C38.7373 83.7682 38.6756 84.2216 38.7261 84.6695C38.7348 85.0865 38.867 85.4916 39.106 85.8335C39.345 86.1753 39.6801 86.4386 40.0688 86.5899C40.1968 86.6167 40.3291 86.6145 40.4561 86.5835C40.5831 86.5524 40.7015 86.4932 40.8026 86.4103C40.9666 86.2932 40.99 86.1839 40.9666 86.1761Z" fill="#D78776"/>
<path d="M60.7638 72.343C61.0797 72.3345 61.3895 72.2535 61.6692 72.1062C61.9488 71.9589 62.1908 71.7493 62.3765 71.4935C62.5622 71.2377 62.6866 70.9426 62.74 70.6311C62.7934 70.3196 62.7744 69.9999 62.6846 69.6969C62.5947 69.3939 62.4364 69.1156 62.2218 68.8835C62.0072 68.6515 61.7421 68.4719 61.447 68.3586C61.1519 68.2454 60.8347 68.2016 60.52 68.2305C60.2052 68.2595 59.9013 68.3604 59.6318 68.5256C60.2847 67.9837 60.8166 67.3108 61.1931 66.5505C61.3753 66.1671 61.4355 65.737 61.3657 65.3183C61.2959 64.8995 61.0995 64.5123 60.8028 64.2086C60.4593 63.9813 60.0619 63.8486 59.6507 63.8239C59.2395 63.7992 58.8291 63.8835 58.4609 64.0681C57.2977 64.5677 56.3765 65.5513 55.1821 65.9651C53.9877 66.3788 52.6528 66.1758 51.3725 66.2305C49.936 66.2561 48.5446 66.7372 47.399 67.6044C46.4229 68.3714 45.7911 69.4945 45.6426 70.727C45.4891 70.5164 45.3195 70.318 45.1351 70.1337C44.528 69.4091 43.7089 68.8931 42.7932 68.6583C42.7385 68.7598 43.808 69.3531 44.8307 70.4148C45.1091 70.6812 45.3699 70.9654 45.6113 71.2657C43.8315 71.0471 41.872 71.0315 40.4668 72.14C39.8976 72.6474 39.4477 73.2746 39.1494 73.9764C38.8511 74.6782 38.7119 75.4374 38.7416 76.1994C38.7416 77.7139 39.3661 79.1581 39.8111 80.6101C39.9187 81.0214 40.1042 81.4083 40.3576 81.7498L41.0289 85.6531L43.4724 85.6063L43.3162 77.4172C43.3162 77.4172 43.0664 73.9667 46.0329 74.2946C48.9994 74.6225 53.0588 77.9403 58.82 77.0972C59.7653 77.0444 60.6862 76.7775 61.5132 76.3165C61.9135 76.0629 62.2388 75.7071 62.4557 75.2858C62.6725 74.8645 62.773 74.393 62.7466 73.9199C62.6898 73.4491 62.4499 73.0197 62.0788 72.7246C61.7077 72.4294 61.2352 72.2924 60.7638 72.343Z" fill="#263238"/>
<path d="M110.413 112.757L110.772 110.275C111.139 108.917 111.37 107.526 111.459 106.122C111.518 105.424 111.455 104.721 111.272 104.045C111.088 103.194 110.783 102.374 110.367 101.61C109.914 100.946 110.507 100.048 111.147 100.322C111.787 100.595 113.122 102.359 113.552 104.904C113.981 107.449 115.987 103.92 116.737 102.648C117.486 101.375 120.008 97.5424 120.585 97.4644C121.428 97.3473 121.709 98.245 120.921 99.4862C120.132 100.727 118.056 104.67 118.751 105.029C119.271 104.946 119.803 104.972 120.312 105.107C120.394 105.131 120.467 105.18 120.52 105.247C120.573 105.314 120.604 105.396 120.609 105.482C120.606 105.875 120.648 106.268 120.734 106.653C120.734 106.653 121.756 106.418 121.967 106.863C122.11 107.32 122.175 107.798 122.162 108.276C122.162 108.276 122.943 108.011 123.318 108.276C124.098 108.909 123.099 109.994 123.099 109.994C120.8 112.736 118.331 115.33 115.706 117.761L110.327 112.578" fill="#E5BAAB"/>
<path d="M120.421 106.824C120.192 107.307 119.883 107.748 119.508 108.128C119.195 108.503 118.805 108.909 118.345 109.401C118.104 109.656 117.843 109.891 117.564 110.103C117.392 110.24 117.184 110.324 116.966 110.346C116.747 110.369 116.526 110.327 116.33 110.228C116.224 110.165 116.133 110.078 116.067 109.974C116 109.869 115.959 109.75 115.948 109.627C115.932 109.407 115.981 109.187 116.088 108.995C116.281 108.705 116.489 108.426 116.713 108.159C117.111 107.66 117.439 107.191 117.712 106.785C117.974 106.326 118.275 105.89 118.61 105.482C118.48 106.001 118.258 106.493 117.954 106.934C117.671 107.436 117.358 107.92 117.017 108.386C116.81 108.635 116.617 108.895 116.44 109.166C116.299 109.424 116.307 109.744 116.533 109.861C116.661 109.915 116.8 109.934 116.937 109.916C117.075 109.898 117.205 109.844 117.314 109.76C117.573 109.563 117.818 109.35 118.048 109.119C118.516 108.682 118.922 108.269 119.258 107.917C119.608 107.514 119.997 107.148 120.421 106.824Z" fill="#D78776"/>
<path d="M121.787 108.425C121.558 108.841 121.262 109.218 120.913 109.541C120.56 109.919 120.176 110.266 119.765 110.579C119.519 110.766 119.258 110.933 118.985 111.079C118.823 111.16 118.649 111.216 118.469 111.243C118.361 111.261 118.25 111.255 118.144 111.227C118.037 111.199 117.938 111.148 117.853 111.079C117.709 110.93 117.617 110.737 117.593 110.532C117.57 110.326 117.614 110.117 117.72 109.939C117.878 109.661 118.064 109.399 118.274 109.159C118.618 108.76 118.938 108.378 119.258 107.995C119.828 107.34 120.203 106.957 120.249 106.988C120.043 107.417 119.781 107.816 119.469 108.175L118.594 109.416C118.41 109.637 118.243 109.872 118.095 110.119C118.035 110.218 118.007 110.334 118.015 110.45C118.023 110.566 118.068 110.677 118.142 110.767C118.282 110.899 118.579 110.845 118.836 110.72C119.093 110.587 119.34 110.439 119.578 110.275C119.984 109.985 120.372 109.673 120.741 109.338C121.051 108.992 121.403 108.686 121.787 108.425Z" fill="#D78776"/>
<path d="M122.107 110.657C122.146 110.657 122.107 111.009 121.741 111.438C121.629 111.571 121.493 111.68 121.338 111.759C121.184 111.838 121.016 111.886 120.843 111.899C120.619 111.9 120.402 111.826 120.226 111.688C120.129 111.607 120.052 111.505 119.999 111.39C119.946 111.276 119.92 111.151 119.922 111.024C119.983 110.626 120.145 110.251 120.39 109.931C120.555 109.674 120.735 109.426 120.929 109.19C121.264 108.784 121.506 108.573 121.553 108.612C121.6 108.651 121.428 108.917 121.163 109.393C121.007 109.666 120.851 109.916 120.71 110.173C120.522 110.449 120.392 110.759 120.328 111.087C120.334 111.219 120.39 111.344 120.486 111.436C120.582 111.528 120.71 111.579 120.843 111.579C121.102 111.57 121.349 111.468 121.538 111.29C121.889 110.915 122.053 110.626 122.107 110.657Z" fill="#D78776"/>
<path d="M109.828 109.533C109.828 109.533 89.3512 129.682 86.4784 129.83C83.1997 129.986 73.1136 115.685 73.1136 115.685C66.6577 105.724 58.1407 104.116 55.0338 103.866V102.632L39.772 101.383C39.772 101.383 39.772 102.695 39.772 103.842H33.035C33.035 103.842 20.9349 103.288 19.1238 119.541L27.8202 126.419L31.3878 139.69C32.6291 144.311 28.1949 151.673 26.0794 163.593C25.7531 165.581 26.0848 167.62 27.024 169.401L71.0918 174.468L68.7498 140.775L68.0394 132.968C71.6694 137.926 78.1879 144.936 86.1739 144.78C99.7963 144.522 118.719 115.896 118.719 115.896L109.828 109.533Z" fill="#E0E0E0"/>
<path d="M49.897 102.414C49.9727 103.106 49.9727 103.805 49.897 104.498C49.7832 106.232 49.5484 107.957 49.1944 109.658L49.1398 109.916L48.9056 109.791C48.3747 109.51 47.8205 109.213 47.2584 108.885C45.0726 107.597 43.2068 106.27 41.7938 105.349C41.0311 104.885 40.296 104.376 39.5924 103.827C39.826 103.895 40.0493 103.995 40.256 104.123C40.6619 104.35 41.2474 104.678 41.95 105.107C43.3708 105.966 45.2599 107.262 47.4145 108.534C47.961 108.854 48.5074 109.159 49.0383 109.44L48.7494 109.572C49.2022 107.558 49.4208 105.755 49.5848 104.475C49.647 103.782 49.7513 103.094 49.897 102.414Z" fill="#FAFAFA"/>
<path d="M55.0806 103.952C54.9826 104.622 54.8365 105.285 54.6434 105.934C54.4951 106.551 54.339 107.285 54.0736 108.081C53.9354 108.502 53.7711 108.914 53.5818 109.315C53.5272 109.458 53.4289 109.581 53.3007 109.666C53.2118 109.72 53.107 109.743 53.0035 109.73C52.9 109.718 52.8039 109.67 52.7309 109.596C52.5846 109.38 52.4665 109.147 52.3796 108.901C51.5989 107.129 50.9822 105.521 50.5294 104.342C50.2447 103.724 50.0274 103.078 49.8815 102.414C50.2461 102.988 50.5521 103.597 50.7948 104.233C51.3179 105.38 52.0127 106.973 52.7543 108.745C52.8263 108.942 52.9151 109.133 53.0197 109.315C53.0587 109.315 53.0197 109.315 53.0899 109.315C53.1487 109.267 53.1944 109.205 53.2227 109.135C53.4095 108.751 53.5762 108.358 53.7223 107.956C53.9955 107.176 54.1829 106.457 54.3624 105.856C54.5176 105.193 54.7591 104.552 55.0806 103.952Z" fill="#FAFAFA"/>
<path d="M52.2391 158.472C52.2018 158.29 52.1809 158.104 52.1767 157.918C52.1767 157.512 52.1455 156.992 52.083 156.357C52.0206 154.92 51.9269 152.93 51.8176 150.486C51.6302 145.49 51.3648 138.659 51.0838 131.118C50.8027 123.577 50.6232 116.746 50.4671 111.75C50.4124 109.299 50.3656 107.308 50.3265 105.872C50.3265 105.216 50.3265 104.685 50.3265 104.311C50.3064 104.124 50.3064 103.935 50.3265 103.749C50.3625 103.931 50.3808 104.117 50.3812 104.303C50.3812 104.709 50.4436 105.24 50.4827 105.864C50.5451 107.293 50.6388 109.283 50.7481 111.727C50.9354 116.723 51.1931 123.554 51.4819 131.095C51.7707 138.636 51.9347 145.467 52.0986 150.471C52.1533 152.914 52.2001 154.905 52.2391 156.341C52.2391 157.005 52.2391 157.536 52.2391 157.941C52.2575 158.118 52.2575 158.296 52.2391 158.472Z" fill="#F5F5F5"/>
<path d="M49.4597 107.347L50.74 110.876L51.8407 107.09L50.1311 103.296L49.4597 107.347Z" fill="#E67F00"/>
<path d="M50.9743 109.822L50.1312 149.542L56.1266 162.079L58.492 147.973L50.9743 109.822Z" fill="#E67F00"/>
<path d="M86.697 134.74C86.697 134.74 86.697 134.858 86.697 135.053L86.6501 135.349L86.5174 135.053C86.2153 134.263 86.0414 133.43 86.0022 132.586C85.8731 131.644 85.9859 130.685 86.3301 129.799C86.4472 129.799 86.3301 131.048 86.4081 132.562C86.4706 133.64 86.6423 134.561 86.697 135.006H86.5174C86.5877 134.795 86.6658 134.74 86.697 134.74Z" fill="#FAFAFA"/>
<path d="M88.4534 134.608C87.8711 133.997 87.4383 133.259 87.1888 132.453C86.8131 131.709 86.6078 130.89 86.5876 130.057C86.985 130.782 87.3093 131.546 87.5557 132.336C87.928 133.062 88.2286 133.823 88.4534 134.608Z" fill="#FAFAFA"/>
<path d="M117.439 117.793C115.751 116.899 114.128 115.887 112.583 114.764C110.965 113.753 109.42 112.629 107.962 111.399C109.65 112.299 111.272 113.317 112.818 114.444C114.436 115.449 115.98 116.568 117.439 117.793Z" fill="#FAFAFA"/>
<path d="M32.3247 124.17C32.3247 124.17 29.0772 146.809 30.6151 148.074C39.1085 155.217 50.912 158.964 55.1275 160.143C55.7442 159.995 56.4624 159.799 57.2899 159.534C58.0072 159.306 58.6804 158.958 59.2806 158.504C60.0469 157.966 60.7352 157.325 61.3259 156.599C61.4151 156.443 61.5505 156.319 61.7134 156.243C61.8762 156.168 62.0585 156.145 62.2351 156.177C62.4117 156.21 62.5737 156.296 62.699 156.425C62.8242 156.554 62.9063 156.718 62.934 156.895C62.9731 157.676 61.724 159.682 59.3743 161.15C59.3743 161.15 64.7842 169.854 66.5094 170.643C68.2347 171.431 73.1684 173.648 72.3331 174.07C71.4978 174.491 65.4946 172.75 65.4946 172.75L53.3164 169.495C53.3164 169.495 13.0348 163.18 15.7124 144.702C17.3596 133.374 19.1551 123.171 19.803 120.587L32.3247 124.17Z" fill="#E5BAAB"/>
<path d="M19.1237 119.533L15.5483 144.21C14.713 151.806 19.8029 157.84 26.6492 161.236C37.0709 166.396 52.5434 170.081 52.4107 170.057C52.278 170.034 53.4568 159.042 53.4568 159.042C53.4568 159.042 31.7625 149.674 31.0833 145.615C30.4041 141.556 33.839 124.693 33.839 124.693L19.1237 119.533Z" fill="#E0E0E0"/>
<path d="M52.3794 170.057C52.3712 169.992 52.3712 169.927 52.3794 169.862C52.3794 169.706 52.3794 169.519 52.4184 169.292C52.4574 168.753 52.5121 168.027 52.5902 167.098C52.7541 165.162 52.9961 162.415 53.2849 159.034L53.3708 159.175L42.4417 153.89L39.3191 152.329C38.2652 151.766 37.2035 151.15 36.1496 150.471C35.0804 149.78 34.0533 149.027 33.0739 148.215C32.5821 147.801 32.0902 147.364 31.6218 146.903C31.3577 146.671 31.145 146.387 30.9973 146.068C30.9146 145.913 30.8541 145.748 30.8178 145.576C30.7665 145.413 30.73 145.246 30.7085 145.076C30.3572 142.375 31.0754 139.83 31.4891 137.402C31.9029 134.975 32.3166 132.609 32.707 130.377C33.4876 125.896 34.198 121.868 34.7913 118.464C35.1116 116.956 35.2945 115.422 35.3378 113.881C35.3528 112.722 35.113 111.573 34.6352 110.517C34.3287 109.85 33.8936 109.251 33.3549 108.753C32.9802 108.417 32.7538 108.284 32.7616 108.261C32.9938 108.378 33.2113 108.522 33.4095 108.69C33.9827 109.174 34.4481 109.772 34.7757 110.447C35.2881 111.519 35.5548 112.693 35.5563 113.881C35.5389 115.437 35.3743 116.987 35.0645 118.511C34.4946 121.922 33.8155 125.958 33.0661 130.447C32.6835 132.687 32.2854 135.045 31.8717 137.473C31.7702 138.082 31.6609 138.698 31.5516 139.323C31.4423 139.947 31.3252 140.556 31.2393 141.181C31.0341 142.443 30.9999 143.727 31.1378 144.998C31.1626 145.154 31.1964 145.307 31.2393 145.459C31.27 145.609 31.3226 145.753 31.3955 145.888C31.5241 146.164 31.7104 146.409 31.9419 146.606C32.4025 147.059 32.8787 147.489 33.3627 147.894C34.3291 148.699 35.3432 149.445 36.3994 150.127C37.4377 150.806 38.4838 151.415 39.522 151.977L42.6447 153.539L53.4879 158.941L53.5738 158.988V159.081C53.2225 162.461 52.9414 165.202 52.7463 167.138C52.637 168.059 52.5589 168.792 52.4965 169.323C52.4653 169.552 52.4418 169.74 52.4262 169.885C52.4162 169.944 52.4005 170.002 52.3794 170.057Z" fill="#FAFAFA"/>
<path d="M50.3654 157.536C50.3885 158.101 50.344 158.667 50.2327 159.222C50.1 160.252 49.8814 161.673 49.5925 163.234C49.3037 164.796 48.9758 166.201 48.7104 167.208C48.6033 167.763 48.4221 168.301 48.1718 168.808C48.199 168.244 48.2853 167.684 48.4294 167.138C48.6584 165.961 48.9186 164.634 49.21 163.156C49.4832 161.261 49.869 159.384 50.3654 157.536Z" fill="#FAFAFA"/>
<path d="M52.3794 170.057C52.2494 170.056 52.1204 170.035 51.9969 169.995L50.9274 169.737L47.0242 168.707C43.722 167.817 39.1318 166.646 34.2137 164.842C31.8993 163.996 29.6457 162.992 27.4688 161.837C25.6904 160.891 23.9932 159.799 22.3946 158.574C21.3159 157.748 20.2984 156.845 19.3501 155.873C19.0144 155.529 18.7724 155.256 18.5694 155.092C18.4765 155 18.3975 154.895 18.3352 154.78C18.3352 154.78 18.7255 155.147 19.4281 155.795C20.4179 156.716 21.4605 157.579 22.5507 158.379C24.1651 159.54 25.8609 160.583 27.625 161.501C29.7964 162.63 32.039 163.615 34.3386 164.452C39.2254 166.248 43.8079 167.458 47.0866 168.426L50.9899 169.573L52.0437 169.909C52.1615 169.944 52.2744 169.993 52.3794 170.057Z" fill="#FAFAFA"/>
<path d="M52.645 160.174C52.6497 160.314 52.6126 160.451 52.5387 160.57C52.4647 160.688 52.3571 160.782 52.2297 160.839C52.1022 160.896 51.9607 160.914 51.8231 160.89C51.6856 160.866 51.5582 160.802 51.4573 160.705C51.3564 160.609 51.2865 160.484 51.2566 160.348C51.2266 160.212 51.238 160.07 51.2892 159.94C51.3404 159.81 51.4292 159.698 51.5441 159.619C51.6591 159.54 51.795 159.497 51.9346 159.495C52.1183 159.493 52.2955 159.563 52.4283 159.69C52.5611 159.817 52.6389 159.991 52.645 160.174Z" fill="#FAFAFA"/>
</svg>
