<svg width="64" height="64" viewBox="0 0 64 64" fill="none" xmlns="http://www.w3.org/2000/svg">
<rect width="64" height="64" rx="22" fill="#FFEDD5"/>
<path d="M36.0001 37.3333C36.0001 37.3333 34.5001 36 32.0001 36C29.5001 36 28.0001 37.3333 28.0001 37.3333M38.6667 29.3333C38.6667 30.0697 38.0698 30.6667 37.3334 30.6667C36.597 30.6667 36.0001 30.0697 36.0001 29.3333C36.0001 28.5969 36.597 28 37.3334 28C38.0698 28 38.6667 28.5969 38.6667 29.3333ZM28.0001 29.3333C28.0001 30.0697 27.4031 30.6667 26.6667 30.6667C25.9304 30.6667 25.3334 30.0697 25.3334 29.3333C25.3334 28.5969 25.9304 28 26.6667 28C27.4031 28 28.0001 28.5969 28.0001 29.3333ZM45.3334 32C45.3334 39.3638 39.3639 45.3333 32.0001 45.3333C24.6363 45.3333 18.6667 39.3638 18.6667 32C18.6667 24.6362 24.6363 18.6667 32.0001 18.6667C39.3639 18.6667 45.3334 24.6362 45.3334 32Z" stroke="#7C2D12" stroke-width="2" stroke-linecap="round"/>
</svg>
